<?xml version="1.0" encoding="utf-8"?>
<!-- Svg Vector Icons : http://www.onlinewebfonts.com/icon -->
<!DOCTYPE svg PUBLIC "-//W3C//DTD SVG 1.1//EN" "http://www.w3.org/Graphics/SVG/1.1/DTD/svg11.dtd">
<svg version="1.1" xmlns="http://www.w3.org/2000/svg" xmlns:xlink="http://www.w3.org/1999/xlink" x="0px" y="0px" viewBox="0 0 1000 1000" enable-background="new 0 0 1000 1000" xml:space="preserve">
<metadata> Svg Vector Icons : http://www.onlinewebfonts.com/icon </metadata>
<g><path d="M882.1,573.2l41.6,145.6c0.6,2,0,4.1-1.6,5.5c-1,0.9-2.3,1.4-3.7,1.4c-0.7,0-1.3-0.1-2-0.4l-166.7-64.1c-2.6-1-4-3.8-3.3-6.5c4.5-16.2,7.3-29.8,8.9-42.9c0.2-1.7,1.2-3.1,2.6-4c1.4-0.9,3.2-1,4.8-0.4l80.9,31.1l-15.3-53.6c-5.5-19.1,1-39.5,16.5-52.1c58.2-47.1,90.3-109.6,90.3-175.9c0-136.7-135.9-247.8-302.9-247.8c-111,0-213.1,49.8-266.4,130c-1,1.5-2.7,2.4-4.5,2.4c-16.8,0.2-34,1.5-52.5,3.9c-2,0.3-4-0.6-5.1-2.3c-1.2-1.6-1.3-3.8-0.4-5.6C359.9,126,489,54.1,632.2,54.1c95.4,0,185.2,31.4,252.7,88.4C952.7,199.6,990,275.8,990,356.8c0,42.1-10,82.8-29.9,121C941.6,513.7,915.3,545.7,882.1,573.2z M76.3,939l41.6-145.6c-33.2-27.5-59.5-59.5-78-95.3C20.1,659.9,10,619.2,10,577.1c0-81.1,37.3-157.2,105.2-214.4c67.5-57,157.3-88.4,252.7-88.4s185.2,31.4,252.7,88.4c67.8,57.2,105.2,133.4,105.2,214.4c0,81.1-37.3,157.2-105.2,214.4c-67.5,57-157.3,88.4-252.7,88.4c-28.9,0-58.7-3.2-88.4-9.7l-196,75.4c-0.6,0.2-1.3,0.4-2,0.4c-1.3,0-2.7-0.5-3.7-1.4C76.3,943.1,75.7,941,76.3,939z M155.2,753.1c15.5,12.5,21.9,32.9,16.4,52.1l-15.3,53.6l104.9-40.4c5.7-2.2,11.7-3.3,17.8-3.3c3.6,0,7.2,0.4,10.6,1.2c26.4,5.8,52.7,8.7,78.2,8.7c167,0,302.9-111.2,302.9-247.8c0-136.7-135.9-247.8-302.9-247.8c-167,0-302.9,111.2-302.9,247.8C64.9,643.4,97,705.9,155.2,753.1z"/></g>
</svg>