<?xml version="1.0" encoding="utf-8"?>
<!-- Svg Vector Icons : http://www.onlinewebfonts.com/icon -->
<!DOCTYPE svg PUBLIC "-//W3C//DTD SVG 1.1//EN" "http://www.w3.org/Graphics/SVG/1.1/DTD/svg11.dtd">
<svg version="1.1" xmlns="http://www.w3.org/2000/svg" xmlns:xlink="http://www.w3.org/1999/xlink" x="0px" y="0px" viewBox="0 0 1000 1000" enable-background="new 0 0 1000 1000" xml:space="preserve">
<metadata> Svg Vector Icons : http://www.onlinewebfonts.com/icon </metadata>
<g><path d="M873.3,557.2l-35.6-38.6c158.2-146.3,83.8-301.4,80.5-307.9c-40.3-73.2-97-119.8-163.6-133.9c-65.7-14-129.6,6.2-164,32.3c-85.6,65-293.9,294-296,296.3l-38.9-35.3c8.7-9.5,213.7-234.9,303.1-302.8C599.6,36.4,678.1,7,765.5,25.5c57.1,12.1,138.1,49.9,199.1,160.9C966,189.1,1061.3,383.3,873.3,557.2L873.3,557.2z M152.5,567.3C-69.1,421.9,33.7,193.5,34.7,191.2C112.7,49,237.6,33.1,274.1,31.6c134-5.9,230.3,104.5,234.4,109.2l-39.7,34.3c-0.8-0.9-84.6-95.7-192.4-91.1c-29.5,1.2-130.8,14.3-194.7,130.9c-2.7,6.1-83.4,188.3,99.7,308.5L152.5,567.3L152.5,567.3z M554.5,980.3c-26.1,0-59.6-11-95.3-50.8l39.1-35c17.9,20,45,41.5,72.1,30.1c21.4-8.9,20.1-55.3,18.5-67.2l-3.9-30.5l30.8,0.9c24.1,0.2,41.4-4.4,51.1-15.3c14.4-16.1,10.8-42,10.7-42.3l-4.9-33.4l33.5,3.3c23.6,2.5,40.7-1.6,50.9-12.2c15.6-16.2,15.3-46.8,13.8-57.2l-8.4-60.6l49.7,35.5c6.1,4.3,25.9-1.8,40.8-19.2c9.1-10.6,21.7-31.2,3.1-50.4c-45-46.3-165.2-165.7-211.6-211.8c-30.7,30.3-87.1,82.9-120.4,95.7c-139,53.4-225.8-30.4-252.3-82.2l46.7-24c2.3,4.4,57.8,106.8,186.7,57.1c23.5-9,84.4-65.1,120.2-102.1l18.5-19.1l18.9,18.7c1.7,1.7,174.7,173,231,231c32.8,33.8,32.4,82.5-1,121.2c-17.7,20.6-43.9,36.4-69.7,38.6c-2.3,20.3-9.2,45.2-28,64.8c-16.5,17.2-38.5,26.9-65.6,28.8c-2,16.4-7.9,36.7-23.2,54c-15.5,17.7-37.1,28.4-64.3,32c-1.3,35.2-13.2,78.1-51.7,94.1C581.6,976.8,569.2,980.3,554.5,980.3L554.5,980.3L554.5,980.3z M175.9,720.3c-23.7,0-47.5-10.8-65.6-29.5c-15.2-15.8-24.6-35.7-26.5-56c-2.1-22.2,5.2-43.1,20.1-57.4l127.7-122.6c28.5-27.3,81.1-22.1,113,11.1c15.2,15.8,24.6,35.7,26.5,56c2.1,22.2-5.2,43.1-20,57.4L223.3,701.9C210.9,713.8,194.1,720.3,175.9,720.3L175.9,720.3z M278.9,489c-3.2,0-7.8,0.7-11.1,3.8L140.2,615.4c-4.4,4.2-4.5,11-4.1,14.6c0.8,8.4,5.2,17.3,12.1,24.5c12.2,12.6,30.9,17.1,38.8,9.6l127.7-122.6c4.4-4.2,4.5-11,4.1-14.6c-0.8-8.4-5.2-17.3-12.1-24.5C298.6,494,288.2,489,278.9,489L278.9,489z M259.7,804.9c-23.7,0-47.6-10.8-65.6-29.5c-32.9-34.3-35.9-85.1-6.5-113.4l127.7-122.6c28.5-27.3,81.2-22.1,113,11.1c15.2,15.8,24.6,35.7,26.5,56c2.1,22.2-5.2,43.1-20.1,57.4L307.1,786.4C294.7,798.3,277.9,804.9,259.7,804.9L259.7,804.9z M362.8,573.5c-3.2,0-7.8,0.7-11.1,3.8L224,699.9c-7.3,7-5.8,24.8,8,39.1c8,8.4,18.4,13.4,27.7,13.4c3.2,0,7.8-0.6,11.1-3.8l127.7-122.6c4.4-4.2,4.5-11,4.2-14.6c-0.8-8.4-5.2-17.3-12.1-24.5C382.4,578.5,372.1,573.5,362.8,573.5L362.8,573.5z M343.5,889.4c-23.7,0-47.6-10.7-65.6-29.5c-32.9-34.2-35.9-85.1-6.5-113.3l127.7-122.6c28.5-27.3,81.1-22.1,113,11.1c32.9,34.3,35.8,85.2,6.5,113.4L391,871C378.6,882.8,361.7,889.4,343.5,889.4L343.5,889.4L343.5,889.4z M446.6,658c-4.7,0-8.5,1.3-11.1,3.8L307.8,784.4c-7.3,7-5.8,24.8,8,39.1c8.1,8.4,18.4,13.4,27.7,13.4c3.2,0,7.8-0.7,11.1-3.8l127.6-122.6c7.3-7,5.8-24.8-7.9-39.1C466.2,663,455.9,658,446.6,658L446.6,658z M427.4,973.9c-23.6,0-47.6-10.7-65.6-29.5c-15.2-15.8-24.6-35.7-26.5-56c-2.1-22.2,5.2-43.1,20.1-57.4L483,708.4c28.6-27.3,81.2-22.1,113,11.1c15.2,15.8,24.6,35.7,26.5,56c2.1,22.2-5.2,43.1-20.1,57.4L474.8,955.5C462.4,967.4,445.6,973.9,427.4,973.9L427.4,973.9z M530.4,742.5c-4.7,0-8.4,1.3-11.1,3.8L391.7,868.9c-4.4,4.2-4.5,11-4.2,14.6c0.8,8.4,5.2,17.3,12.1,24.5c8.1,8.4,18.4,13.4,27.7,13.4c3.2,0,7.8-0.6,11.1-3.8L566.1,795c4.4-4.2,4.5-11,4.2-14.6c-0.8-8.4-5.2-17.3-12.1-24.5C550.1,747.5,539.7,742.5,530.4,742.5L530.4,742.5z M574.9,591.3l147.2,147.3L685,775.7L537.8,628.4L574.9,591.3L574.9,591.3z M670,502.1l139.7,139.7L772.6,679L632.9,539.3L670,502.1L670,502.1z"/></g>
</svg>