<?xml version="1.0" encoding="utf-8"?><svg version="1.1" id="Layer_1" xmlns="http://www.w3.org/2000/svg" xmlns:xlink="http://www.w3.org/1999/xlink" x="0px" y="0px" viewBox="0 0 120.21 95.92" style="enable-background:new 0 0 120.21 95.92" xml:space="preserve"><style type="text/css"><![CDATA[
	.st0{fill:#262626;}
	.st1{fill-rule:evenodd;clip-rule:evenodd;fill:#51B53C;}
]]></style><g><path class="st0" d="M95.9,41.05c-0.01,0.1-0.04,0.2-0.07,0.29c-0.03,0.1-0.07,0.19-0.11,0.28c-0.04,0.17-0.07,0.35-0.09,0.54 c-0.02,0.21-0.03,0.43-0.03,0.68l0,0.02c0,0.04,0.01,0.08,0.01,0.13v33.62c0.19,0.47,0.41,0.88,0.64,1.22 c0.23,0.35,0.49,0.63,0.76,0.84l0.01,0.01c0.24,0.19,0.51,0.33,0.81,0.42c0.3,0.09,0.64,0.13,1,0.12 c2.59-0.21,7.44-0.17,10.04-0.01c0.67,0.03,1.25-0.04,1.73-0.21c0.47-0.17,0.86-0.43,1.17-0.79l0.02-0.02 c0.36-0.42,0.65-0.98,0.87-1.66c0.23-0.71,0.38-1.56,0.46-2.54c0-8.4,2.08-21.57,2.94-30.43c0-0.06,0-0.12,0.01-0.2 c0.09-0.8,0.06-1.45-0.1-1.96c-0.15-0.48-0.4-0.85-0.75-1.12c-0.43-0.33-1.02-0.57-1.74-0.73c-0.75-0.16-1.65-0.24-2.67-0.24 l-0.14,0.01H99.78c-0.03,0-0.06,0-0.09-0.01c-0.76,0.01-1.41,0.08-1.95,0.23c-0.53,0.15-0.95,0.36-1.27,0.65 c-0.13,0.11-0.24,0.24-0.33,0.39C96.05,40.73,95.97,40.88,95.9,41.05L95.9,41.05z M84.4,78.51c-0.13-0.13-0.24-0.28-0.33-0.44 c-0.09-0.16-0.16-0.33-0.2-0.51L68.38,49.68c-0.8-1.33-1.53-2.01-2.22-2.24c-0.64-0.21-1.27-0.03-1.91,0.35 c-0.51,0.3-1.04,0.7-1.58,1.15c-0.57,0.48-1.12,0.98-1.67,1.48l-0.1,0.09c-0.65,0.59-1.3,1.18-1.85,1.64l-2.67,2.2l-0.05,0.04 c-0.98,0.78-2.02,1.39-3.07,1.83c-1.12,0.46-2.26,0.74-3.37,0.83c-0.71,0.06-1.42,0.04-2.11-0.05c-0.69-0.09-1.36-0.26-1.99-0.5 c-0.66-0.25-1.29-0.58-1.86-0.98c-0.55-0.39-1.05-0.86-1.48-1.39c-0.48-0.6-0.88-1.28-1.17-2.04c-0.28-0.72-0.46-1.52-0.54-2.37 c0-0.04,0-0.08,0-0.12c0-0.22,0.03-0.45,0.1-0.66c0.08-0.24,0.2-0.48,0.38-0.69l7.73-9.2c1.01,0.91,2.08,1.75,3.2,2.52l-7.21,8.58 c0.06,0.24,0.14,0.47,0.23,0.68c0.12,0.28,0.28,0.53,0.46,0.76l0.01,0.02c0.2,0.24,0.43,0.45,0.68,0.63 c0.27,0.19,0.57,0.35,0.89,0.47c0.34,0.13,0.72,0.21,1.11,0.26l0.01,0c0.39,0.04,0.8,0.05,1.22,0.02c0.71-0.06,1.46-0.24,2.19-0.55 c0.7-0.29,1.4-0.7,2.05-1.23l2.66-2.2c0.56-0.46,1.05-0.9,1.52-1.33l0.31-0.28c0.62-0.57,1.24-1.14,1.87-1.66 c0.11-0.09,0.22-0.19,0.34-0.28c1.74-0.68,3.4-1.46,4.97-2.35c0.53-0.04,1.06,0,1.6,0.14c1.63,0.42,3.23,1.72,4.8,4.35 c5.26,8.72,10.25,18.45,15.24,27.42h4.42V42.99c0-0.05,0-0.1,0.01-0.17c0-0.24,0.01-0.48,0.02-0.73c0.01-0.15,0.02-0.3,0.04-0.44 l-5.12-3.4c-0.36-0.24-0.74-0.5-1.13-0.77l-1.3-0.92c-2.29-1.6-4.64-3.24-7.09-4.28c0.72-1.13,1.39-2.32,2-3.57 c0.86,0.39,1.7,0.82,2.52,1.3c1.73,1,3.38,2.15,4.99,3.29l0.09,0.07c0.69,0.48,1.38,0.97,2.18,1.5c1.47,0.95,2.93,1.96,4.4,2.94 l0.13-0.15c0.14-0.16,0.3-0.32,0.48-0.47l0,0c0.72-0.64,1.59-1.12,2.6-1.44c0.98-0.31,2.09-0.46,3.33-0.47 c0.03-0.01,0.06-0.01,0.09-0.01c3.57,0.16,7.55-0.25,11.05,0.01c1.42,0,2.7,0.13,3.84,0.41c1.18,0.29,2.2,0.75,3.04,1.4 c0.95,0.73,1.64,1.65,2.05,2.79c0.4,1.11,0.53,2.42,0.35,3.96c-1.28,9.92-1.98,20.46-2.95,30.47c-0.11,1.41-0.36,2.66-0.74,3.77 c-0.39,1.11-0.92,2.05-1.59,2.83c-0.73,0.84-1.61,1.48-2.64,1.88c-1.01,0.4-2.16,0.58-3.47,0.52c-3.21,0-6.49,0.07-9.69,0 c-0.87,0.04-1.68-0.06-2.43-0.29c-0.78-0.24-1.49-0.62-2.14-1.14l-0.02-0.02c-0.46-0.38-0.88-0.81-1.26-1.32 c-0.33-0.43-0.62-0.9-0.89-1.42h-3.2c0.16,0.62,0.24,1.23,0.25,1.83c0.02,0.84-0.11,1.65-0.36,2.41c-0.24,0.74-0.59,1.43-1.03,2.05 c-0.46,0.65-1.01,1.22-1.63,1.71l-0.03,0.02c-0.59,0.46-1.24,0.85-1.92,1.16c-0.69,0.3-1.42,0.53-2.17,0.65 c-0.75,0.13-1.52,0.15-2.28,0.07c-0.63-0.07-1.26-0.21-1.88-0.44c-0.74,0.74-1.5,1.36-2.27,1.85c-0.87,0.55-1.77,0.95-2.68,1.21 s-1.84,0.35-2.77,0.31c-0.83-0.04-1.65-0.2-2.48-0.46c-0.81,0.87-1.66,1.58-2.56,2.13c-0.98,0.61-2.01,1.04-3.09,1.27 c-1.1,0.24-2.24,0.28-3.41,0.11c-1.07-0.16-2.18-0.49-3.31-0.99c-0.31,0.23-0.62,0.44-0.95,0.63c-0.4,0.24-0.81,0.44-1.24,0.62 c-0.6,0.25-1.21,0.43-1.85,0.55c-0.63,0.11-1.27,0.16-1.93,0.14c-1.55-0.05-2.85-0.3-3.98-0.73c-1.13-0.43-2.08-1.04-2.93-1.8 c-0.8-0.71-1.46-1.52-2.07-2.41c-0.6-0.87-1.15-1.82-1.74-2.84l-6.47-11.29h-4.46c-0.15,0.63-0.33,1.22-0.56,1.76 c-0.28,0.66-0.62,1.27-1.04,1.81c-0.7,0.91-1.57,1.6-2.62,2.06c-1.03,0.45-2.24,0.68-3.64,0.65l-8.84,0 c-1.16,0.18-2.25,0.13-3.24-0.2c-1.02-0.33-1.93-0.95-2.73-1.87c-0.7-0.81-1.28-1.86-1.74-3.18c-0.45-1.29-0.78-2.85-0.97-4.69 l-0.02-0.16L0.17,44.41c-0.23-1.59-0.22-2.96,0.02-4.12c0.24-1.2,0.71-2.19,1.38-3c0.68-0.82,1.53-1.41,2.52-1.81 c0.96-0.39,2.06-0.6,3.27-0.65l0.12-0.01l0.12,0h11.83c0.04,0,0.07,0,0.1,0.01c1.11-0.01,2.15,0.08,3.09,0.29 c1,0.22,1.89,0.57,2.67,1.07c0.63,0.41,1.18,0.9,1.63,1.49c0.38,0.5,0.68,1.07,0.91,1.71h9.14c1.18-0.79,2.33-1.5,3.49-2.11 c1.21-0.63,2.42-1.16,3.71-1.57l0.02-0.01c0.43-0.13,0.87-0.25,1.31-0.36c1.04,1.31,2.17,2.51,3.38,3.6 c-0.43,0.02-0.85,0.07-1.25,0.13c-0.78,0.11-1.52,0.28-2.24,0.51c-1.1,0.34-2.17,0.82-3.24,1.39c-1.08,0.58-2.18,1.27-3.32,2.06 c-0.17,0.13-0.36,0.23-0.57,0.3c-0.21,0.07-0.43,0.11-0.66,0.11h-9.29v17.99l0.04,11.33h5.21c0.36,0,0.72,0.1,1.03,0.28 c0.3,0.17,0.55,0.43,0.74,0.75l7.07,12.31c0.51,0.89,0.99,1.72,1.48,2.44c0.48,0.71,0.97,1.32,1.5,1.8 c0.49,0.44,1.06,0.8,1.75,1.05l0.02,0.01c0.7,0.25,1.53,0.4,2.54,0.43c0.37,0.01,0.74-0.02,1.1-0.08c0.35-0.06,0.69-0.16,1.02-0.3 c0.2-0.08,0.41-0.19,0.62-0.3c0.09-0.05,0.18-0.11,0.27-0.16c-1.46-2.73-2.95-5.46-4.39-8.2c-0.26-0.49-0.29-1.04-0.14-1.53 c0.15-0.49,0.49-0.93,0.98-1.19l0.06-0.03c0.48-0.24,1.02-0.28,1.5-0.13c0.49,0.15,0.92,0.49,1.19,0.97 c1.64,3.06,3.28,6.12,4.91,9.18c0.83,0.41,1.63,0.68,2.37,0.82c0.78,0.14,1.52,0.14,2.22-0.01c0.63-0.14,1.25-0.4,1.85-0.78 c0.53-0.33,1.04-0.76,1.55-1.28L57.78,77.9c-0.3-0.47-0.38-1.02-0.27-1.53c0.11-0.51,0.42-0.97,0.89-1.27 c0.47-0.3,1.02-0.38,1.53-0.27c0.5,0.11,0.97,0.42,1.27,0.89l7.47,11.73c0.57,0.22,1.13,0.35,1.67,0.4c0.58,0.05,1.15,0,1.7-0.15 l0.02-0.01c0.53-0.15,1.06-0.39,1.6-0.74c0.46-0.3,0.92-0.68,1.39-1.13l-6.69-12.6c-0.25-0.49-0.29-1.04-0.14-1.53 c0.15-0.49,0.49-0.93,0.97-1.19l0.05-0.03c0.49-0.25,1.04-0.29,1.53-0.14c0.49,0.15,0.92,0.49,1.19,0.97L79,84.54 c0.36,0.19,0.75,0.32,1.14,0.38c0.47,0.08,0.96,0.08,1.43,0c0.4-0.07,0.8-0.19,1.18-0.35c0.38-0.17,0.75-0.38,1.07-0.63 c0.32-0.25,0.6-0.54,0.82-0.86c0.21-0.29,0.38-0.62,0.49-0.95l0,0c0.12-0.39,0.18-0.81,0.15-1.26c-0.03-0.43-0.14-0.88-0.33-1.36 L84.4,78.51L84.4,78.51z M14.07,66.35c0.71,0,1.36,0.29,1.83,0.76c0.47,0.47,0.76,1.12,0.76,1.83c0,0.71-0.29,1.36-0.76,1.83 l-0.03,0.03c-0.47,0.45-1.1,0.73-1.8,0.73c-0.71,0-1.36-0.29-1.83-0.76c-0.47-0.47-0.76-1.12-0.76-1.83c0-0.71,0.29-1.36,0.76-1.83 C12.71,66.63,13.36,66.35,14.07,66.35L14.07,66.35z M105.72,66.35c0.71,0,1.36,0.29,1.83,0.76c0.47,0.47,0.76,1.12,0.76,1.83 c0,0.71-0.29,1.36-0.76,1.83c-0.47,0.47-1.11,0.76-1.83,0.76c-0.71,0-1.36-0.29-1.83-0.76c-0.47-0.47-0.76-1.12-0.76-1.83 c0-0.71,0.29-1.36,0.76-1.83l0.03-0.03C104.39,66.62,105.02,66.35,105.72,66.35L105.72,66.35z M24.22,57.69l-0.06-16.32 c-0.07-0.43-0.2-0.79-0.38-1.08c-0.17-0.29-0.4-0.52-0.67-0.69c-0.4-0.26-0.9-0.44-1.5-0.55c-0.61-0.12-1.3-0.17-2.06-0.16 c-0.03,0.01-0.07,0.01-0.11,0.01c-3.95,0-7.97,0.07-11.91,0c-0.67,0.03-1.26,0.13-1.74,0.3c-0.46,0.16-0.83,0.39-1.08,0.7l0,0 c-0.28,0.33-0.47,0.8-0.56,1.43c-0.1,0.67-0.07,1.52,0.08,2.56c1.04,7.78,2.21,21.13,2.32,28.9c0.15,1.44,0.38,2.61,0.68,3.55 c0.29,0.91,0.65,1.59,1.06,2.07c0.29,0.34,0.64,0.56,1.03,0.67c0.41,0.12,0.87,0.12,1.38,0.03c0.06-0.01,0.12-0.02,0.18-0.03 l0.07-0.01c0.04-0.01,0.07-0.01,0.11-0.01h8.88c0.06,0,0.13,0,0.21,0.01c0.7,0.01,1.3-0.09,1.78-0.29 c0.47-0.19,0.85-0.47,1.13-0.85c0.36-0.46,0.63-1.06,0.81-1.79c0.19-0.73,0.29-1.58,0.33-2.54l-0.01-0.09V57.86 C24.19,57.8,24.2,57.74,24.22,57.69L24.22,57.69z"/><path class="st1" d="M60.27,0c6.74,4.27,12.82,6.29,18.05,5.81c0.91,18.46-5.9,29.35-17.98,33.9c-0.08-0.03-0.15-0.06-0.23-0.09 c-0.08,0.03-0.15,0.06-0.23,0.09C47.8,35.17,40.99,24.27,41.9,5.81C47.12,6.29,53.21,4.27,59.95,0l0,0l0.16,0.12L60.27,0L60.27,0 L60.27,0L60.27,0z M49.32,18.19l3.94-0.05l0.3,0.07c0.8,0.46,1.54,0.98,2.25,1.58c0.51,0.43,0.99,0.89,1.44,1.4 c1.41-2.27,2.92-4.36,4.51-6.28c1.74-2.1,2.83-3.26,4.77-5l0.38-0.15h4.3l-0.87,0.96c-2.66,2.96-4.33,5.27-6.51,8.42 c-2.19,3.16-4.14,6.42-5.88,9.77l-0.54,1.04l-0.5-1.06c-0.92-1.97-2.01-3.77-3.32-5.38c-1.31-1.61-2.83-3.05-4.61-4.26L49.32,18.19 L49.32,18.19L49.32,18.19L49.32,18.19L49.32,18.19z"/></g></svg>